<mxfile host="app.diagrams.net" modified="2023-04-16T18:35:01.188Z" agent="Mozilla/5.0 (Windows NT 10.0; Win64; x64) AppleWebKit/537.36 (KHTML, like Gecko) Chrome/112.0.0.0 Safari/537.36 Edg/112.0.1722.46" etag="0QGsEfdl_KWO6xHTk1-R" version="21.1.8" type="device">
  <diagram id="R2lEEEUBdFMjLlhIrx00" name="Page-1">
    <mxGraphModel dx="1195" dy="663" grid="1" gridSize="10" guides="1" tooltips="1" connect="1" arrows="1" fold="1" page="1" pageScale="1" pageWidth="850" pageHeight="1100" math="0" shadow="0" extFonts="Permanent Marker^https://fonts.googleapis.com/css?family=Permanent+Marker">
      <root>
        <mxCell id="0" />
        <mxCell id="1" parent="0" />
        <mxCell id="sVMPvfN2BgPOR3H-3-9w-22" value="Servicio&lt;br&gt;" style="whiteSpace=wrap;html=1;align=center;fontFamily=Helvetica;fontSize=11;fontColor=default;" parent="1" vertex="1">
          <mxGeometry x="325" y="110" width="100" height="40" as="geometry" />
        </mxCell>
        <mxCell id="sVMPvfN2BgPOR3H-3-9w-37" style="edgeStyle=orthogonalEdgeStyle;shape=connector;rounded=0;orthogonalLoop=1;jettySize=auto;html=1;exitX=0.5;exitY=0;exitDx=0;exitDy=0;entryX=0.5;entryY=1;entryDx=0;entryDy=0;labelBackgroundColor=default;strokeColor=default;fontFamily=Helvetica;fontSize=11;fontColor=default;endArrow=none;endFill=0;" parent="1" source="sVMPvfN2BgPOR3H-3-9w-23" target="sVMPvfN2BgPOR3H-3-9w-28" edge="1">
          <mxGeometry relative="1" as="geometry" />
        </mxCell>
        <mxCell id="sVMPvfN2BgPOR3H-3-9w-97" style="edgeStyle=orthogonalEdgeStyle;shape=connector;rounded=0;orthogonalLoop=1;jettySize=auto;html=1;exitX=1;exitY=0.5;exitDx=0;exitDy=0;labelBackgroundColor=default;strokeColor=default;fontFamily=Helvetica;fontSize=11;fontColor=default;endArrow=none;endFill=0;" parent="1" source="sVMPvfN2BgPOR3H-3-9w-23" edge="1">
          <mxGeometry relative="1" as="geometry">
            <mxPoint x="155" y="230" as="targetPoint" />
          </mxGeometry>
        </mxCell>
        <mxCell id="sVMPvfN2BgPOR3H-3-9w-23" value="Producto&lt;br&gt;" style="whiteSpace=wrap;html=1;align=center;fontFamily=Helvetica;fontSize=11;fontColor=default;" parent="1" vertex="1">
          <mxGeometry x="35" y="210" width="100" height="40" as="geometry" />
        </mxCell>
        <mxCell id="sVMPvfN2BgPOR3H-3-9w-44" style="edgeStyle=orthogonalEdgeStyle;shape=connector;rounded=0;orthogonalLoop=1;jettySize=auto;html=1;exitX=1;exitY=0.5;exitDx=0;exitDy=0;labelBackgroundColor=default;strokeColor=default;fontFamily=Helvetica;fontSize=11;fontColor=default;endArrow=none;endFill=0;entryX=0.5;entryY=0;entryDx=0;entryDy=0;" parent="1" source="sVMPvfN2BgPOR3H-3-9w-24" target="sVMPvfN2BgPOR3H-3-9w-30" edge="1">
          <mxGeometry relative="1" as="geometry">
            <mxPoint x="860" y="245" as="targetPoint" />
          </mxGeometry>
        </mxCell>
        <mxCell id="sVMPvfN2BgPOR3H-3-9w-93" style="edgeStyle=orthogonalEdgeStyle;shape=connector;rounded=0;orthogonalLoop=1;jettySize=auto;html=1;exitX=0;exitY=0.5;exitDx=0;exitDy=0;labelBackgroundColor=default;strokeColor=default;fontFamily=Helvetica;fontSize=11;fontColor=default;endArrow=none;endFill=0;" parent="1" source="sVMPvfN2BgPOR3H-3-9w-24" edge="1">
          <mxGeometry relative="1" as="geometry">
            <mxPoint x="670" y="245" as="targetPoint" />
          </mxGeometry>
        </mxCell>
        <mxCell id="sVMPvfN2BgPOR3H-3-9w-24" value="Utiles&lt;br&gt;" style="whiteSpace=wrap;html=1;align=center;fontFamily=Helvetica;fontSize=11;fontColor=default;" parent="1" vertex="1">
          <mxGeometry x="680" y="225" width="100" height="40" as="geometry" />
        </mxCell>
        <mxCell id="sVMPvfN2BgPOR3H-3-9w-41" style="edgeStyle=orthogonalEdgeStyle;shape=connector;rounded=0;orthogonalLoop=1;jettySize=auto;html=1;exitX=0;exitY=0.5;exitDx=0;exitDy=0;labelBackgroundColor=default;strokeColor=default;fontFamily=Helvetica;fontSize=11;fontColor=default;endArrow=none;endFill=0;entryX=0.5;entryY=1;entryDx=0;entryDy=0;" parent="1" source="sVMPvfN2BgPOR3H-3-9w-25" target="sVMPvfN2BgPOR3H-3-9w-33" edge="1">
          <mxGeometry relative="1" as="geometry">
            <mxPoint x="25" y="530" as="targetPoint" />
            <Array as="points">
              <mxPoint x="15" y="370" />
              <mxPoint x="15" y="690" />
              <mxPoint x="740" y="690" />
            </Array>
          </mxGeometry>
        </mxCell>
        <mxCell id="Sqv26Lqkv27anE32QpoD-17" style="edgeStyle=orthogonalEdgeStyle;shape=connector;rounded=0;orthogonalLoop=1;jettySize=auto;html=1;exitX=1;exitY=0.5;exitDx=0;exitDy=0;labelBackgroundColor=default;strokeColor=default;fontFamily=Helvetica;fontSize=11;fontColor=default;endArrow=none;endFill=0;entryX=0;entryY=0.5;entryDx=0;entryDy=0;" edge="1" parent="1" source="sVMPvfN2BgPOR3H-3-9w-25" target="Sqv26Lqkv27anE32QpoD-15">
          <mxGeometry relative="1" as="geometry">
            <mxPoint x="160" y="370.3333333333335" as="targetPoint" />
          </mxGeometry>
        </mxCell>
        <mxCell id="sVMPvfN2BgPOR3H-3-9w-25" value="Cliente&lt;br&gt;" style="whiteSpace=wrap;html=1;align=center;fontFamily=Helvetica;fontSize=11;fontColor=default;" parent="1" vertex="1">
          <mxGeometry x="35" y="350" width="100" height="40" as="geometry" />
        </mxCell>
        <mxCell id="sVMPvfN2BgPOR3H-3-9w-45" style="edgeStyle=orthogonalEdgeStyle;shape=connector;rounded=0;orthogonalLoop=1;jettySize=auto;html=1;exitX=1;exitY=0.5;exitDx=0;exitDy=0;entryX=0.5;entryY=1;entryDx=0;entryDy=0;labelBackgroundColor=default;strokeColor=default;fontFamily=Helvetica;fontSize=11;fontColor=default;endArrow=none;endFill=0;" parent="1" source="sVMPvfN2BgPOR3H-3-9w-26" target="sVMPvfN2BgPOR3H-3-9w-30" edge="1">
          <mxGeometry relative="1" as="geometry" />
        </mxCell>
        <mxCell id="Sqv26Lqkv27anE32QpoD-6" style="edgeStyle=orthogonalEdgeStyle;rounded=0;orthogonalLoop=1;jettySize=auto;html=1;exitX=0;exitY=0.5;exitDx=0;exitDy=0;endArrow=none;endFill=0;" edge="1" parent="1" source="sVMPvfN2BgPOR3H-3-9w-26">
          <mxGeometry relative="1" as="geometry">
            <mxPoint x="640" y="335" as="targetPoint" />
            <Array as="points">
              <mxPoint x="640" y="475" />
            </Array>
          </mxGeometry>
        </mxCell>
        <mxCell id="sVMPvfN2BgPOR3H-3-9w-26" value="Peluquera&lt;br&gt;" style="whiteSpace=wrap;html=1;align=center;fontFamily=Helvetica;fontSize=11;fontColor=default;" parent="1" vertex="1">
          <mxGeometry x="690" y="455" width="100" height="40" as="geometry" />
        </mxCell>
        <mxCell id="sVMPvfN2BgPOR3H-3-9w-40" style="edgeStyle=orthogonalEdgeStyle;shape=connector;rounded=0;orthogonalLoop=1;jettySize=auto;html=1;exitX=0.5;exitY=0;exitDx=0;exitDy=0;entryX=0.5;entryY=1;entryDx=0;entryDy=0;labelBackgroundColor=default;strokeColor=default;fontFamily=Helvetica;fontSize=11;fontColor=default;endArrow=none;endFill=0;" parent="1" source="sVMPvfN2BgPOR3H-3-9w-27" target="sVMPvfN2BgPOR3H-3-9w-31" edge="1">
          <mxGeometry relative="1" as="geometry" />
        </mxCell>
        <mxCell id="sVMPvfN2BgPOR3H-3-9w-73" style="edgeStyle=orthogonalEdgeStyle;shape=connector;rounded=0;orthogonalLoop=1;jettySize=auto;html=1;exitX=1;exitY=0.5;exitDx=0;exitDy=0;labelBackgroundColor=default;strokeColor=default;fontFamily=Helvetica;fontSize=11;fontColor=default;endArrow=none;endFill=0;entryX=1;entryY=0.5;entryDx=0;entryDy=0;" parent="1" source="sVMPvfN2BgPOR3H-3-9w-27" target="sVMPvfN2BgPOR3H-3-9w-71" edge="1">
          <mxGeometry relative="1" as="geometry">
            <mxPoint x="465" y="650" as="targetPoint" />
          </mxGeometry>
        </mxCell>
        <mxCell id="sVMPvfN2BgPOR3H-3-9w-27" value="Venta&lt;br&gt;" style="whiteSpace=wrap;html=1;align=center;fontFamily=Helvetica;fontSize=11;fontColor=default;" parent="1" vertex="1">
          <mxGeometry x="325" y="450" width="100" height="40" as="geometry" />
        </mxCell>
        <mxCell id="sVMPvfN2BgPOR3H-3-9w-36" style="edgeStyle=orthogonalEdgeStyle;shape=connector;rounded=0;orthogonalLoop=1;jettySize=auto;html=1;exitX=1;exitY=0.5;exitDx=0;exitDy=0;entryX=0;entryY=0.5;entryDx=0;entryDy=0;labelBackgroundColor=default;strokeColor=default;fontFamily=Helvetica;fontSize=11;fontColor=default;endArrow=none;endFill=0;" parent="1" source="sVMPvfN2BgPOR3H-3-9w-28" target="sVMPvfN2BgPOR3H-3-9w-22" edge="1">
          <mxGeometry relative="1" as="geometry">
            <Array as="points">
              <mxPoint x="325" y="130" />
            </Array>
          </mxGeometry>
        </mxCell>
        <mxCell id="sVMPvfN2BgPOR3H-3-9w-28" value="Incluye" style="shape=rhombus;perimeter=rhombusPerimeter;whiteSpace=wrap;html=1;align=center;fontFamily=Helvetica;fontSize=11;fontColor=default;" parent="1" vertex="1">
          <mxGeometry x="25" y="100" width="120" height="60" as="geometry" />
        </mxCell>
        <mxCell id="sVMPvfN2BgPOR3H-3-9w-35" style="edgeStyle=orthogonalEdgeStyle;shape=connector;rounded=0;orthogonalLoop=1;jettySize=auto;html=1;exitX=0;exitY=0.5;exitDx=0;exitDy=0;entryX=1;entryY=0.5;entryDx=0;entryDy=0;labelBackgroundColor=default;strokeColor=default;fontFamily=Helvetica;fontSize=11;fontColor=default;endArrow=none;endFill=0;" parent="1" source="sVMPvfN2BgPOR3H-3-9w-29" target="sVMPvfN2BgPOR3H-3-9w-22" edge="1">
          <mxGeometry relative="1" as="geometry">
            <Array as="points">
              <mxPoint x="710" y="130" />
            </Array>
          </mxGeometry>
        </mxCell>
        <mxCell id="sVMPvfN2BgPOR3H-3-9w-43" style="edgeStyle=orthogonalEdgeStyle;shape=connector;rounded=0;orthogonalLoop=1;jettySize=auto;html=1;exitX=0.5;exitY=1;exitDx=0;exitDy=0;entryX=0.5;entryY=0;entryDx=0;entryDy=0;labelBackgroundColor=default;strokeColor=default;fontFamily=Helvetica;fontSize=11;fontColor=default;endArrow=none;endFill=0;" parent="1" source="sVMPvfN2BgPOR3H-3-9w-29" target="sVMPvfN2BgPOR3H-3-9w-24" edge="1">
          <mxGeometry relative="1" as="geometry" />
        </mxCell>
        <mxCell id="sVMPvfN2BgPOR3H-3-9w-29" value="Se utiliza&amp;nbsp;" style="shape=rhombus;perimeter=rhombusPerimeter;whiteSpace=wrap;html=1;align=center;fontFamily=Helvetica;fontSize=11;fontColor=default;" parent="1" vertex="1">
          <mxGeometry x="670" y="95" width="120" height="60" as="geometry" />
        </mxCell>
        <mxCell id="sVMPvfN2BgPOR3H-3-9w-30" value="Usa" style="shape=rhombus;perimeter=rhombusPerimeter;whiteSpace=wrap;html=1;align=center;fontFamily=Helvetica;fontSize=11;fontColor=default;" parent="1" vertex="1">
          <mxGeometry x="760" y="330" width="120" height="60" as="geometry" />
        </mxCell>
        <mxCell id="sVMPvfN2BgPOR3H-3-9w-34" style="edgeStyle=orthogonalEdgeStyle;shape=connector;rounded=0;orthogonalLoop=1;jettySize=auto;html=1;exitX=0.5;exitY=0;exitDx=0;exitDy=0;entryX=0.5;entryY=1;entryDx=0;entryDy=0;labelBackgroundColor=default;strokeColor=default;fontFamily=Helvetica;fontSize=11;fontColor=default;endArrow=none;endFill=0;" parent="1" source="sVMPvfN2BgPOR3H-3-9w-31" target="sVMPvfN2BgPOR3H-3-9w-22" edge="1">
          <mxGeometry relative="1" as="geometry" />
        </mxCell>
        <mxCell id="sVMPvfN2BgPOR3H-3-9w-31" value="Se vende&amp;nbsp;" style="shape=rhombus;perimeter=rhombusPerimeter;whiteSpace=wrap;html=1;align=center;fontFamily=Helvetica;fontSize=11;fontColor=default;" parent="1" vertex="1">
          <mxGeometry x="315" y="280" width="120" height="60" as="geometry" />
        </mxCell>
        <mxCell id="sVMPvfN2BgPOR3H-3-9w-39" style="edgeStyle=orthogonalEdgeStyle;shape=connector;rounded=0;orthogonalLoop=1;jettySize=auto;html=1;exitX=0.5;exitY=1;exitDx=0;exitDy=0;entryX=0;entryY=0.5;entryDx=0;entryDy=0;labelBackgroundColor=default;strokeColor=default;fontFamily=Helvetica;fontSize=11;fontColor=default;endArrow=none;endFill=0;" parent="1" source="sVMPvfN2BgPOR3H-3-9w-32" target="sVMPvfN2BgPOR3H-3-9w-27" edge="1">
          <mxGeometry relative="1" as="geometry">
            <Array as="points">
              <mxPoint x="85" y="640" />
              <mxPoint x="300" y="640" />
              <mxPoint x="300" y="470" />
            </Array>
          </mxGeometry>
        </mxCell>
        <mxCell id="sVMPvfN2BgPOR3H-3-9w-49" style="edgeStyle=orthogonalEdgeStyle;shape=connector;rounded=0;orthogonalLoop=1;jettySize=auto;html=1;exitX=0.5;exitY=0;exitDx=0;exitDy=0;entryX=0.5;entryY=1;entryDx=0;entryDy=0;labelBackgroundColor=default;strokeColor=default;fontFamily=Helvetica;fontSize=11;fontColor=default;endArrow=none;endFill=0;" parent="1" source="sVMPvfN2BgPOR3H-3-9w-32" target="sVMPvfN2BgPOR3H-3-9w-25" edge="1">
          <mxGeometry relative="1" as="geometry" />
        </mxCell>
        <mxCell id="Sqv26Lqkv27anE32QpoD-16" style="edgeStyle=orthogonalEdgeStyle;shape=connector;rounded=0;orthogonalLoop=1;jettySize=auto;html=1;exitX=0.5;exitY=1;exitDx=0;exitDy=0;labelBackgroundColor=default;strokeColor=default;fontFamily=Helvetica;fontSize=11;fontColor=default;endArrow=none;endFill=0;" edge="1" parent="1" source="sVMPvfN2BgPOR3H-3-9w-32">
          <mxGeometry relative="1" as="geometry">
            <mxPoint x="85" y="640" as="targetPoint" />
          </mxGeometry>
        </mxCell>
        <mxCell id="sVMPvfN2BgPOR3H-3-9w-32" value="Realiza" style="shape=rhombus;perimeter=rhombusPerimeter;whiteSpace=wrap;html=1;align=center;fontFamily=Helvetica;fontSize=11;fontColor=default;" parent="1" vertex="1">
          <mxGeometry x="25" y="550" width="120" height="60" as="geometry" />
        </mxCell>
        <mxCell id="sVMPvfN2BgPOR3H-3-9w-48" style="edgeStyle=orthogonalEdgeStyle;shape=connector;rounded=0;orthogonalLoop=1;jettySize=auto;html=1;exitX=0.5;exitY=0;exitDx=0;exitDy=0;entryX=0.5;entryY=1;entryDx=0;entryDy=0;labelBackgroundColor=default;strokeColor=default;fontFamily=Helvetica;fontSize=11;fontColor=default;endArrow=none;endFill=0;" parent="1" source="sVMPvfN2BgPOR3H-3-9w-33" target="sVMPvfN2BgPOR3H-3-9w-26" edge="1">
          <mxGeometry relative="1" as="geometry" />
        </mxCell>
        <mxCell id="sVMPvfN2BgPOR3H-3-9w-33" value="Proporciona" style="shape=rhombus;perimeter=rhombusPerimeter;whiteSpace=wrap;html=1;align=center;fontFamily=Helvetica;fontSize=11;fontColor=default;" parent="1" vertex="1">
          <mxGeometry x="680" y="585" width="120" height="60" as="geometry" />
        </mxCell>
        <mxCell id="sVMPvfN2BgPOR3H-3-9w-62" style="edgeStyle=orthogonalEdgeStyle;shape=connector;rounded=0;orthogonalLoop=1;jettySize=auto;html=1;exitX=0.5;exitY=0;exitDx=0;exitDy=0;labelBackgroundColor=default;strokeColor=default;fontFamily=Helvetica;fontSize=11;fontColor=default;endArrow=none;endFill=0;" parent="1" source="sVMPvfN2BgPOR3H-3-9w-50" edge="1">
          <mxGeometry relative="1" as="geometry">
            <mxPoint x="375" y="90" as="targetPoint" />
          </mxGeometry>
        </mxCell>
        <mxCell id="sVMPvfN2BgPOR3H-3-9w-101" style="edgeStyle=orthogonalEdgeStyle;shape=connector;rounded=0;orthogonalLoop=1;jettySize=auto;html=1;exitX=1;exitY=0.75;exitDx=0;exitDy=0;entryX=0;entryY=0.5;entryDx=0;entryDy=0;labelBackgroundColor=default;strokeColor=default;fontFamily=Helvetica;fontSize=11;fontColor=default;endArrow=none;endFill=0;" parent="1" source="sVMPvfN2BgPOR3H-3-9w-50" target="sVMPvfN2BgPOR3H-3-9w-33" edge="1">
          <mxGeometry relative="1" as="geometry">
            <Array as="points">
              <mxPoint x="455" y="140" />
              <mxPoint x="455" y="615" />
            </Array>
          </mxGeometry>
        </mxCell>
        <mxCell id="sVMPvfN2BgPOR3H-3-9w-50" value="Servicio&lt;br&gt;" style="shape=ext;margin=3;double=1;whiteSpace=wrap;html=1;align=center;fontFamily=Helvetica;fontSize=11;fontColor=default;" parent="1" vertex="1">
          <mxGeometry x="325" y="110" width="100" height="40" as="geometry" />
        </mxCell>
        <mxCell id="sVMPvfN2BgPOR3H-3-9w-68" style="edgeStyle=orthogonalEdgeStyle;shape=connector;rounded=0;orthogonalLoop=1;jettySize=auto;html=1;exitX=0.5;exitY=1;exitDx=0;exitDy=0;labelBackgroundColor=default;strokeColor=default;fontFamily=Helvetica;fontSize=11;fontColor=default;endArrow=none;endFill=0;" parent="1" source="sVMPvfN2BgPOR3H-3-9w-52" edge="1">
          <mxGeometry relative="1" as="geometry">
            <mxPoint x="495" y="90" as="targetPoint" />
          </mxGeometry>
        </mxCell>
        <mxCell id="sVMPvfN2BgPOR3H-3-9w-52" value="Venta" style="ellipse;whiteSpace=wrap;html=1;align=center;fontFamily=Helvetica;fontSize=11;fontColor=default;" parent="1" vertex="1">
          <mxGeometry x="445" y="30" width="100" height="40" as="geometry" />
        </mxCell>
        <mxCell id="sVMPvfN2BgPOR3H-3-9w-67" style="edgeStyle=orthogonalEdgeStyle;shape=connector;rounded=0;orthogonalLoop=1;jettySize=auto;html=1;exitX=0.5;exitY=1;exitDx=0;exitDy=0;labelBackgroundColor=default;strokeColor=default;fontFamily=Helvetica;fontSize=11;fontColor=default;endArrow=none;endFill=0;" parent="1" source="sVMPvfN2BgPOR3H-3-9w-53" edge="1">
          <mxGeometry relative="1" as="geometry">
            <mxPoint x="375" y="90" as="targetPoint" />
          </mxGeometry>
        </mxCell>
        <mxCell id="sVMPvfN2BgPOR3H-3-9w-53" value="Telefono" style="ellipse;whiteSpace=wrap;html=1;align=center;fontFamily=Helvetica;fontSize=11;fontColor=default;" parent="1" vertex="1">
          <mxGeometry x="325" y="30" width="100" height="40" as="geometry" />
        </mxCell>
        <mxCell id="sVMPvfN2BgPOR3H-3-9w-64" style="edgeStyle=orthogonalEdgeStyle;shape=connector;rounded=0;orthogonalLoop=1;jettySize=auto;html=1;exitX=0.5;exitY=1;exitDx=0;exitDy=0;labelBackgroundColor=default;strokeColor=default;fontFamily=Helvetica;fontSize=11;fontColor=default;endArrow=none;endFill=0;" parent="1" source="sVMPvfN2BgPOR3H-3-9w-54" edge="1">
          <mxGeometry relative="1" as="geometry">
            <mxPoint x="375" y="120" as="targetPoint" />
            <Array as="points">
              <mxPoint x="135" y="90" />
              <mxPoint x="375" y="90" />
            </Array>
          </mxGeometry>
        </mxCell>
        <mxCell id="sVMPvfN2BgPOR3H-3-9w-54" value="Nombre" style="ellipse;whiteSpace=wrap;html=1;align=center;fontFamily=Helvetica;fontSize=11;fontColor=default;" parent="1" vertex="1">
          <mxGeometry x="85" y="30" width="100" height="40" as="geometry" />
        </mxCell>
        <mxCell id="sVMPvfN2BgPOR3H-3-9w-65" style="edgeStyle=orthogonalEdgeStyle;shape=connector;rounded=0;orthogonalLoop=1;jettySize=auto;html=1;exitX=0.5;exitY=1;exitDx=0;exitDy=0;labelBackgroundColor=default;strokeColor=default;fontFamily=Helvetica;fontSize=11;fontColor=default;endArrow=none;endFill=0;" parent="1" source="sVMPvfN2BgPOR3H-3-9w-55" edge="1">
          <mxGeometry relative="1" as="geometry">
            <mxPoint x="375" y="100" as="targetPoint" />
            <Array as="points">
              <mxPoint x="615" y="90" />
              <mxPoint x="375" y="90" />
            </Array>
          </mxGeometry>
        </mxCell>
        <mxCell id="sVMPvfN2BgPOR3H-3-9w-55" value="Rut" style="ellipse;whiteSpace=wrap;html=1;align=center;fontFamily=Helvetica;fontSize=11;fontColor=default;" parent="1" vertex="1">
          <mxGeometry x="565" y="30" width="100" height="40" as="geometry" />
        </mxCell>
        <mxCell id="sVMPvfN2BgPOR3H-3-9w-66" style="edgeStyle=orthogonalEdgeStyle;shape=connector;rounded=0;orthogonalLoop=1;jettySize=auto;html=1;exitX=0.5;exitY=1;exitDx=0;exitDy=0;labelBackgroundColor=default;strokeColor=default;fontFamily=Helvetica;fontSize=11;fontColor=default;endArrow=none;endFill=0;" parent="1" source="sVMPvfN2BgPOR3H-3-9w-60" edge="1">
          <mxGeometry relative="1" as="geometry">
            <mxPoint x="255" y="90" as="targetPoint" />
          </mxGeometry>
        </mxCell>
        <mxCell id="sVMPvfN2BgPOR3H-3-9w-60" value="Tipo venta&lt;br&gt;" style="ellipse;whiteSpace=wrap;html=1;align=center;fontFamily=Helvetica;fontSize=11;fontColor=default;" parent="1" vertex="1">
          <mxGeometry x="205" y="30" width="100" height="40" as="geometry" />
        </mxCell>
        <mxCell id="sVMPvfN2BgPOR3H-3-9w-78" style="edgeStyle=orthogonalEdgeStyle;shape=connector;rounded=0;orthogonalLoop=1;jettySize=auto;html=1;exitX=1;exitY=0.5;exitDx=0;exitDy=0;labelBackgroundColor=default;strokeColor=default;fontFamily=Helvetica;fontSize=11;fontColor=default;endArrow=none;endFill=0;" parent="1" source="sVMPvfN2BgPOR3H-3-9w-69" edge="1">
          <mxGeometry relative="1" as="geometry">
            <mxPoint x="445" y="530" as="targetPoint" />
          </mxGeometry>
        </mxCell>
        <mxCell id="sVMPvfN2BgPOR3H-3-9w-69" value="Precio Producto/servicio" style="ellipse;whiteSpace=wrap;html=1;align=center;fontFamily=Helvetica;fontSize=11;fontColor=default;" parent="1" vertex="1">
          <mxGeometry x="305" y="510" width="100" height="40" as="geometry" />
        </mxCell>
        <mxCell id="sVMPvfN2BgPOR3H-3-9w-77" style="edgeStyle=orthogonalEdgeStyle;shape=connector;rounded=0;orthogonalLoop=1;jettySize=auto;html=1;exitX=1;exitY=0.5;exitDx=0;exitDy=0;labelBackgroundColor=default;strokeColor=default;fontFamily=Helvetica;fontSize=11;fontColor=default;endArrow=none;endFill=0;" parent="1" source="sVMPvfN2BgPOR3H-3-9w-70" edge="1">
          <mxGeometry relative="1" as="geometry">
            <mxPoint x="445" y="590" as="targetPoint" />
          </mxGeometry>
        </mxCell>
        <mxCell id="sVMPvfN2BgPOR3H-3-9w-70" value="Total" style="ellipse;whiteSpace=wrap;html=1;align=center;fontFamily=Helvetica;fontSize=11;fontColor=default;" parent="1" vertex="1">
          <mxGeometry x="305" y="570" width="100" height="40" as="geometry" />
        </mxCell>
        <mxCell id="sVMPvfN2BgPOR3H-3-9w-71" value="Numero de&lt;br&gt;Transaccion&lt;br&gt;" style="ellipse;whiteSpace=wrap;html=1;align=center;fontFamily=Helvetica;fontSize=11;fontColor=default;" parent="1" vertex="1">
          <mxGeometry x="305" y="630" width="100" height="40" as="geometry" />
        </mxCell>
        <mxCell id="sVMPvfN2BgPOR3H-3-9w-91" style="edgeStyle=orthogonalEdgeStyle;shape=connector;rounded=0;orthogonalLoop=1;jettySize=auto;html=1;exitX=1;exitY=0.5;exitDx=0;exitDy=0;labelBackgroundColor=default;strokeColor=default;fontFamily=Helvetica;fontSize=11;fontColor=default;endArrow=none;endFill=0;" parent="1" source="sVMPvfN2BgPOR3H-3-9w-86" edge="1">
          <mxGeometry relative="1" as="geometry">
            <mxPoint x="670" y="245" as="targetPoint" />
          </mxGeometry>
        </mxCell>
        <mxCell id="sVMPvfN2BgPOR3H-3-9w-86" value="Nombre" style="ellipse;whiteSpace=wrap;html=1;align=center;fontFamily=Helvetica;fontSize=11;fontColor=default;" parent="1" vertex="1">
          <mxGeometry x="550" y="205" width="100" height="40" as="geometry" />
        </mxCell>
        <mxCell id="sVMPvfN2BgPOR3H-3-9w-92" style="edgeStyle=orthogonalEdgeStyle;shape=connector;rounded=0;orthogonalLoop=1;jettySize=auto;html=1;exitX=1;exitY=0.5;exitDx=0;exitDy=0;labelBackgroundColor=default;strokeColor=default;fontFamily=Helvetica;fontSize=11;fontColor=default;endArrow=none;endFill=0;" parent="1" source="sVMPvfN2BgPOR3H-3-9w-89" edge="1">
          <mxGeometry relative="1" as="geometry">
            <mxPoint x="670" y="245" as="targetPoint" />
          </mxGeometry>
        </mxCell>
        <mxCell id="sVMPvfN2BgPOR3H-3-9w-89" value="Numero de&lt;br&gt;Transaccion&lt;br&gt;" style="ellipse;whiteSpace=wrap;html=1;align=center;fontFamily=Helvetica;fontSize=11;fontColor=default;" parent="1" vertex="1">
          <mxGeometry x="550" y="255" width="100" height="40" as="geometry" />
        </mxCell>
        <mxCell id="sVMPvfN2BgPOR3H-3-9w-98" style="edgeStyle=orthogonalEdgeStyle;shape=connector;rounded=0;orthogonalLoop=1;jettySize=auto;html=1;exitX=0;exitY=0.5;exitDx=0;exitDy=0;labelBackgroundColor=default;strokeColor=default;fontFamily=Helvetica;fontSize=11;fontColor=default;endArrow=none;endFill=0;" parent="1" source="sVMPvfN2BgPOR3H-3-9w-94" edge="1">
          <mxGeometry relative="1" as="geometry">
            <mxPoint x="155" y="230" as="targetPoint" />
          </mxGeometry>
        </mxCell>
        <mxCell id="sVMPvfN2BgPOR3H-3-9w-94" value="Cantidad" style="ellipse;whiteSpace=wrap;html=1;align=center;fontFamily=Helvetica;fontSize=11;fontColor=default;" parent="1" vertex="1">
          <mxGeometry x="175" y="150" width="100" height="40" as="geometry" />
        </mxCell>
        <mxCell id="sVMPvfN2BgPOR3H-3-9w-100" style="edgeStyle=orthogonalEdgeStyle;shape=connector;rounded=0;orthogonalLoop=1;jettySize=auto;html=1;exitX=0;exitY=0.5;exitDx=0;exitDy=0;labelBackgroundColor=default;strokeColor=default;fontFamily=Helvetica;fontSize=11;fontColor=default;endArrow=none;endFill=0;" parent="1" source="sVMPvfN2BgPOR3H-3-9w-95" edge="1">
          <mxGeometry relative="1" as="geometry">
            <mxPoint x="155" y="230" as="targetPoint" />
          </mxGeometry>
        </mxCell>
        <mxCell id="sVMPvfN2BgPOR3H-3-9w-95" value="Precio compra" style="ellipse;whiteSpace=wrap;html=1;align=center;fontFamily=Helvetica;fontSize=11;fontColor=default;" parent="1" vertex="1">
          <mxGeometry x="175" y="210" width="100" height="40" as="geometry" />
        </mxCell>
        <mxCell id="sVMPvfN2BgPOR3H-3-9w-99" style="edgeStyle=orthogonalEdgeStyle;shape=connector;rounded=0;orthogonalLoop=1;jettySize=auto;html=1;exitX=0;exitY=0.5;exitDx=0;exitDy=0;labelBackgroundColor=default;strokeColor=default;fontFamily=Helvetica;fontSize=11;fontColor=default;endArrow=none;endFill=0;" parent="1" source="sVMPvfN2BgPOR3H-3-9w-96" edge="1">
          <mxGeometry relative="1" as="geometry">
            <mxPoint x="155" y="230" as="targetPoint" />
          </mxGeometry>
        </mxCell>
        <mxCell id="sVMPvfN2BgPOR3H-3-9w-96" value="Precio venta" style="ellipse;whiteSpace=wrap;html=1;align=center;fontFamily=Helvetica;fontSize=11;fontColor=default;" parent="1" vertex="1">
          <mxGeometry x="175" y="270" width="100" height="40" as="geometry" />
        </mxCell>
        <mxCell id="Sqv26Lqkv27anE32QpoD-8" style="edgeStyle=orthogonalEdgeStyle;shape=connector;rounded=0;orthogonalLoop=1;jettySize=auto;html=1;exitX=1;exitY=0.5;exitDx=0;exitDy=0;labelBackgroundColor=default;strokeColor=default;fontFamily=Helvetica;fontSize=11;fontColor=default;endArrow=none;endFill=0;" edge="1" parent="1" source="Sqv26Lqkv27anE32QpoD-1">
          <mxGeometry relative="1" as="geometry">
            <mxPoint x="640" y="335.33333333333337" as="targetPoint" />
          </mxGeometry>
        </mxCell>
        <mxCell id="Sqv26Lqkv27anE32QpoD-1" value="Rut" style="ellipse;whiteSpace=wrap;html=1;align=center;fontFamily=Helvetica;fontSize=11;fontColor=default;" vertex="1" parent="1">
          <mxGeometry x="520" y="315" width="100" height="40" as="geometry" />
        </mxCell>
        <mxCell id="Sqv26Lqkv27anE32QpoD-9" style="edgeStyle=orthogonalEdgeStyle;shape=connector;rounded=0;orthogonalLoop=1;jettySize=auto;html=1;exitX=1;exitY=0.5;exitDx=0;exitDy=0;labelBackgroundColor=default;strokeColor=default;fontFamily=Helvetica;fontSize=11;fontColor=default;endArrow=none;endFill=0;" edge="1" parent="1" source="Sqv26Lqkv27anE32QpoD-2">
          <mxGeometry relative="1" as="geometry">
            <mxPoint x="640" y="395.3333333333335" as="targetPoint" />
          </mxGeometry>
        </mxCell>
        <mxCell id="Sqv26Lqkv27anE32QpoD-2" value="Nombre" style="ellipse;whiteSpace=wrap;html=1;align=center;fontFamily=Helvetica;fontSize=11;fontColor=default;" vertex="1" parent="1">
          <mxGeometry x="520" y="375" width="100" height="40" as="geometry" />
        </mxCell>
        <mxCell id="Sqv26Lqkv27anE32QpoD-10" style="edgeStyle=orthogonalEdgeStyle;shape=connector;rounded=0;orthogonalLoop=1;jettySize=auto;html=1;exitX=1;exitY=0.5;exitDx=0;exitDy=0;labelBackgroundColor=default;strokeColor=default;fontFamily=Helvetica;fontSize=11;fontColor=default;endArrow=none;endFill=0;" edge="1" parent="1" source="Sqv26Lqkv27anE32QpoD-3">
          <mxGeometry relative="1" as="geometry">
            <mxPoint x="640" y="455.3333333333335" as="targetPoint" />
          </mxGeometry>
        </mxCell>
        <mxCell id="Sqv26Lqkv27anE32QpoD-3" value="Telefono" style="ellipse;whiteSpace=wrap;html=1;align=center;fontFamily=Helvetica;fontSize=11;fontColor=default;" vertex="1" parent="1">
          <mxGeometry x="520" y="435" width="100" height="40" as="geometry" />
        </mxCell>
        <mxCell id="Sqv26Lqkv27anE32QpoD-11" style="edgeStyle=orthogonalEdgeStyle;shape=connector;rounded=0;orthogonalLoop=1;jettySize=auto;html=1;exitX=1;exitY=0.5;exitDx=0;exitDy=0;labelBackgroundColor=default;strokeColor=default;fontFamily=Helvetica;fontSize=11;fontColor=default;endArrow=none;endFill=0;" edge="1" parent="1" source="Sqv26Lqkv27anE32QpoD-4">
          <mxGeometry relative="1" as="geometry">
            <mxPoint x="640" y="515.3333333333335" as="targetPoint" />
          </mxGeometry>
        </mxCell>
        <mxCell id="Sqv26Lqkv27anE32QpoD-4" value="Cuenta" style="ellipse;whiteSpace=wrap;html=1;align=center;fontFamily=Helvetica;fontSize=11;fontColor=default;" vertex="1" parent="1">
          <mxGeometry x="520" y="495" width="100" height="40" as="geometry" />
        </mxCell>
        <mxCell id="Sqv26Lqkv27anE32QpoD-7" style="edgeStyle=orthogonalEdgeStyle;shape=connector;rounded=0;orthogonalLoop=1;jettySize=auto;html=1;exitX=1;exitY=0.5;exitDx=0;exitDy=0;labelBackgroundColor=default;strokeColor=default;fontFamily=Helvetica;fontSize=11;fontColor=default;endArrow=none;endFill=0;" edge="1" parent="1" source="Sqv26Lqkv27anE32QpoD-5">
          <mxGeometry relative="1" as="geometry">
            <mxPoint x="640" y="475" as="targetPoint" />
          </mxGeometry>
        </mxCell>
        <mxCell id="Sqv26Lqkv27anE32QpoD-5" value="Tipo de cuenta" style="ellipse;whiteSpace=wrap;html=1;align=center;fontFamily=Helvetica;fontSize=11;fontColor=default;" vertex="1" parent="1">
          <mxGeometry x="520" y="555" width="100" height="40" as="geometry" />
        </mxCell>
        <mxCell id="Sqv26Lqkv27anE32QpoD-20" style="edgeStyle=orthogonalEdgeStyle;shape=connector;rounded=0;orthogonalLoop=1;jettySize=auto;html=1;exitX=0;exitY=0.5;exitDx=0;exitDy=0;labelBackgroundColor=default;strokeColor=default;fontFamily=Helvetica;fontSize=11;fontColor=default;endArrow=none;endFill=0;" edge="1" parent="1" source="Sqv26Lqkv27anE32QpoD-12">
          <mxGeometry relative="1" as="geometry">
            <mxPoint x="160" y="400" as="targetPoint" />
          </mxGeometry>
        </mxCell>
        <mxCell id="Sqv26Lqkv27anE32QpoD-12" value="Rut" style="ellipse;whiteSpace=wrap;html=1;align=center;fontFamily=Helvetica;fontSize=11;fontColor=default;" vertex="1" parent="1">
          <mxGeometry x="185" y="370" width="100" height="40" as="geometry" />
        </mxCell>
        <mxCell id="Sqv26Lqkv27anE32QpoD-19" style="edgeStyle=orthogonalEdgeStyle;shape=connector;rounded=0;orthogonalLoop=1;jettySize=auto;html=1;exitX=0;exitY=0.5;exitDx=0;exitDy=0;labelBackgroundColor=default;strokeColor=default;fontFamily=Helvetica;fontSize=11;fontColor=default;endArrow=none;endFill=0;" edge="1" parent="1" source="Sqv26Lqkv27anE32QpoD-13">
          <mxGeometry relative="1" as="geometry">
            <mxPoint x="160" y="450.3333333333335" as="targetPoint" />
          </mxGeometry>
        </mxCell>
        <mxCell id="Sqv26Lqkv27anE32QpoD-13" value="Nombre" style="ellipse;whiteSpace=wrap;html=1;align=center;fontFamily=Helvetica;fontSize=11;fontColor=default;" vertex="1" parent="1">
          <mxGeometry x="185" y="430" width="100" height="40" as="geometry" />
        </mxCell>
        <mxCell id="Sqv26Lqkv27anE32QpoD-18" style="edgeStyle=orthogonalEdgeStyle;shape=connector;rounded=0;orthogonalLoop=1;jettySize=auto;html=1;exitX=0;exitY=0.5;exitDx=0;exitDy=0;labelBackgroundColor=default;strokeColor=default;fontFamily=Helvetica;fontSize=11;fontColor=default;endArrow=none;endFill=0;" edge="1" parent="1" source="Sqv26Lqkv27anE32QpoD-14">
          <mxGeometry relative="1" as="geometry">
            <mxPoint x="160" y="510.3333333333335" as="targetPoint" />
          </mxGeometry>
        </mxCell>
        <mxCell id="Sqv26Lqkv27anE32QpoD-14" value="Telefono" style="ellipse;whiteSpace=wrap;html=1;align=center;fontFamily=Helvetica;fontSize=11;fontColor=default;" vertex="1" parent="1">
          <mxGeometry x="185" y="490" width="100" height="40" as="geometry" />
        </mxCell>
        <mxCell id="Sqv26Lqkv27anE32QpoD-15" value="Dirección" style="ellipse;whiteSpace=wrap;html=1;align=center;fontFamily=Helvetica;fontSize=11;fontColor=default;" vertex="1" parent="1">
          <mxGeometry x="185" y="550" width="100" height="40" as="geometry" />
        </mxCell>
      </root>
    </mxGraphModel>
  </diagram>
</mxfile>
